{
    "asset" : {
        "generator" : "Khronos glTF Blender I/O v1.6.16",
        "version" : "2.0"
    },
    "scene" : 0,
    "scenes" : [
        {
            "name" : "Scene",
            "nodes" : [
                0,
                1,
                2
            ]
        }
    ],
    "nodes" : [
        {
            "name" : "Light",
            "rotation" : [
                0.16907575726509094,
                0.7558803558349609,
                -0.27217137813568115,
                0.570947527885437
            ],
            "translation" : [
                4.076245307922363,
                5.903861999511719,
                -1.0054539442062378
            ]
        },
        {
            "name" : "Camera",
            "rotation" : [
                0.483536034822464,
                0.33687159419059753,
                -0.20870360732078552,
                0.7804827094078064
            ],
            "translation" : [
                7.358891487121582,
                4.958309173583984,
                6.925790786743164
            ]
        },
        {
            "mesh" : 0,
            "name" : "planta",
            "rotation" : [
                0.6960591077804565,
                -0.12450619041919708,
                0.12450621277093887,
                0.696058988571167
            ],
            "translation" : [
                -0.03485015034675598,
                0.8833563327789307,
                -0.013781926594674587
            ]
        }
    ],
    "materials" : [
        {
            "doubleSided" : true,
            "name" : "Standard737373.001",
            "pbrMetallicRoughness" : {
                "baseColorFactor" : [
                    0.21274934709072113,
                    0.45098045468330383,
                    0.15544061362743378,
                    1
                ],
                "metallicFactor" : 0
            }
        },
        {
            "doubleSided" : true,
            "name" : "StandardDFD8D4",
            "pbrMetallicRoughness" : {
                "baseColorFactor" : [
                    0.15363407135009766,
                    0.874509871006012,
                    0.21559090912342072,
                    1
                ],
                "metallicFactor" : 0
            }
        },
        {
            "doubleSided" : true,
            "name" : "ReflectiveFF3248",
            "pbrMetallicRoughness" : {
                "baseColorFactor" : [
                    1,
                    0,
                    0.004646132234483957,
                    1
                ],
                "metallicFactor" : 0,
                "roughnessFactor" : 0
            }
        }
    ],
    "meshes" : [
        {
            "name" : "planta",
            "primitives" : [
                {
                    "attributes" : {
                        "POSITION" : 0,
                        "NORMAL" : 1,
                        "TEXCOORD_0" : 2
                    },
                    "indices" : 3,
                    "material" : 0
                },
                {
                    "attributes" : {
                        "POSITION" : 4,
                        "NORMAL" : 5,
                        "TEXCOORD_0" : 6
                    },
                    "indices" : 7,
                    "material" : 1
                },
                {
                    "attributes" : {
                        "POSITION" : 8,
                        "NORMAL" : 9,
                        "TEXCOORD_0" : 10
                    },
                    "indices" : 11,
                    "material" : 2
                }
            ]
        }
    ],
    "accessors" : [
        {
            "bufferView" : 0,
            "componentType" : 5126,
            "count" : 26009,
            "max" : [
                0.39011794328689575,
                0.4189644455909729,
                0.9964815974235535
            ],
            "min" : [
                -0.5493178963661194,
                -0.38813021779060364,
                -0.8173700571060181
            ],
            "type" : "VEC3"
        },
        {
            "bufferView" : 1,
            "componentType" : 5126,
            "count" : 26009,
            "type" : "VEC3"
        },
        {
            "bufferView" : 2,
            "componentType" : 5126,
            "count" : 26009,
            "type" : "VEC2"
        },
        {
            "bufferView" : 3,
            "componentType" : 5123,
            "count" : 127236,
            "type" : "SCALAR"
        },
        {
            "bufferView" : 4,
            "componentType" : 5126,
            "count" : 3145,
            "max" : [
                0.2801288366317749,
                0.3109106123447418,
                0.43332743644714355
            ],
            "min" : [
                -0.1337975710630417,
                -0.1838981658220291,
                -0.5362386703491211
            ],
            "type" : "VEC3"
        },
        {
            "bufferView" : 5,
            "componentType" : 5126,
            "count" : 3145,
            "type" : "VEC3"
        },
        {
            "bufferView" : 6,
            "componentType" : 5126,
            "count" : 3145,
            "type" : "VEC2"
        },
        {
            "bufferView" : 7,
            "componentType" : 5123,
            "count" : 11736,
            "type" : "SCALAR"
        },
        {
            "bufferView" : 8,
            "componentType" : 5126,
            "count" : 1976,
            "max" : [
                0.2697570323944092,
                0.22612279653549194,
                0.5516147613525391
            ],
            "min" : [
                -0.33302274346351624,
                -0.23317493498325348,
                0.29352933168411255
            ],
            "type" : "VEC3"
        },
        {
            "bufferView" : 9,
            "componentType" : 5126,
            "count" : 1976,
            "type" : "VEC3"
        },
        {
            "bufferView" : 10,
            "componentType" : 5126,
            "count" : 1976,
            "type" : "VEC2"
        },
        {
            "bufferView" : 11,
            "componentType" : 5123,
            "count" : 11808,
            "type" : "SCALAR"
        }
    ],
    "bufferViews" : [
        {
            "buffer" : 0,
            "byteLength" : 312108,
            "byteOffset" : 0
        },
        {
            "buffer" : 0,
            "byteLength" : 312108,
            "byteOffset" : 312108
        },
        {
            "buffer" : 0,
            "byteLength" : 208072,
            "byteOffset" : 624216
        },
        {
            "buffer" : 0,
            "byteLength" : 254472,
            "byteOffset" : 832288
        },
        {
            "buffer" : 0,
            "byteLength" : 37740,
            "byteOffset" : 1086760
        },
        {
            "buffer" : 0,
            "byteLength" : 37740,
            "byteOffset" : 1124500
        },
        {
            "buffer" : 0,
            "byteLength" : 25160,
            "byteOffset" : 1162240
        },
        {
            "buffer" : 0,
            "byteLength" : 23472,
            "byteOffset" : 1187400
        },
        {
            "buffer" : 0,
            "byteLength" : 23712,
            "byteOffset" : 1210872
        },
        {
            "buffer" : 0,
            "byteLength" : 23712,
            "byteOffset" : 1234584
        },
        {
            "buffer" : 0,
            "byteLength" : 15808,
            "byteOffset" : 1258296
        },
        {
            "buffer" : 0,
            "byteLength" : 23616,
            "byteOffset" : 1274104
        }
    ],
    "buffers" : [
        {
            "byteLength" : 1297720,
            "uri" : "data:application/octet-stream;base64,"
        }
    ]
}
